{"title":"Geordie.Shore.S08E01.576i.PDTV-LEE","uid":10616389,"size":766481579,"categoryP":"video","categoryS":"tv_shows","magnet":"?xt=urn:btih:792f9201c990bed098949c691a4dc24c7f7e1b35&amp;dn=Geordie.Shore.S08E01.576i.PDTV-LEE&amp;tr=udp%3A%2F%2Ftracker.openbittorrent.com%3A80&amp;tr=udp%3A%2F%2Fopen.demonii.com%3A1337&amp;tr=udp%3A%2F%2Ftracker.coppersurfer.tk%3A6969&amp;tr=udp%3A%2F%2Fexodus.desync.com%3A6969","seeders":14,"leechers":0,"uploader":"W33DandSHANE","files":1,"time":1406076823,"description":"\nComplete name                            : CGeordie.Shore.S08E01.576i.PDTV-LEE.mkv\nFormat                                   : Matroska\nFormat version                           : Version 4 / Version 2\nFile size                                : 731 MiB\nDuration                                 : 43mn 38s\nOverall bit rate mode                    : Variable\nOverall bit rate                         : 2 342 Kbps\nEncoded date                             : UTC 2014-07-23 10:45:41\nWriting application                      : mkvmerge v6.5.0 ('Isn't she lovely') built on Oct 20 2013 12:50:05\nWriting library                          : libebml v1.3.0 + libmatroska v1.4.1\n\nVideo\nID                                       : 1\nFormat                                   : MPEG Video\nFormat version                           : Version 2\nFormat profile                           : Main@Main\nFormat settings, BVOP                    : No\nFormat settings, Matrix                  : Custom\nCodec ID                                 : V_MPEG2\nCodec ID/Info                            : MPEG 1 or 2 Video\nDuration                                 : 43mn 38s\nBit rate mode                            : Variable\nBit rate                                 : 2 039 Kbps\nMaximum bit rate                         : 9 000 Kbps\nWidth                                    : 544 pixels\nHeight                                   : 576 pixels\nDisplay aspect ratio                     : 16:9\nFrame rate mode                          : Constant\nFrame rate                               : 25.000 fps\nColor space                              : YUV\nChroma subsampling                       : 4:2:0\nBit depth                                : 8 bits\nScan type                                : Interlaced\nScan order                               : Top Field First\nCompression mode                         : Lossy\nBits/(Pixel*Frame)                       : 0.260\nTime code of first frame                 : 00:00:00:00\nTime code source                         : Group of pictures header\nStream size                              : 637 MiB (87%)\nDefault                                  : Yes\nForced                                   : No\n\nAudio\nID                                       : 2\nFormat                                   : MPEG Audio\nFormat version                           : Version 1\nFormat profile                           : Layer 2\nCodec ID                                 : A_MPEG/L2\nCodec ID/Hint                            : MP2\nDuration                                 : 43mn 38s\nBit rate mode                            : Constant\nBit rate                                 : 256 Kbps\nChannel(s)                               : 2 channels\nSampling rate                            : 48.0 KHz\nCompression mode                         : Lossy\nDelay relative to video                  : 11ms\nStream size                              : 79.9 MiB (11%)\nLanguage                                 : English\nDefault                                  : Yes\nForced                                   : No\n\n","torrent":{"xt":"urn:btih:792f9201c990bed098949c691a4dc24c7f7e1b35","amp;dn":"Geordie.Shore.S08E01.576i.PDTV-LEE","amp;tr":["udp%3A%2F%2Ftracker.openbittorrent.com%3A80","udp%3A%2F%2Fopen.demonii.com%3A1337","udp%3A%2F%2Ftracker.coppersurfer.tk%3A6969","udp%3A%2F%2Fexodus.desync.com%3A6969"],"infoHash":"792f9201c990bed098949c691a4dc24c7f7e1b35","infoHashBuffer":{"type":"Buffer","data":[121,47,146,1,201,144,190,208,152,148,156,105,26,77,194,76,127,126,27,53]},"announce":[],"urlList":[]}}